# Blender v2.77 (sub 0) OBJ File: ''
# www.blender.org
mtllib Bot.mtl
o Cylinder
v -0.020477 0.205606 0.010717
v -0.020477 0.203631 -0.009338
v -0.020477 0.197781 -0.028622
v -0.020477 0.188282 -0.046394
v -0.020477 0.175498 -0.061971
v -0.020477 0.159920 -0.074756
v -0.020477 0.142148 -0.084255
v -0.020477 0.122864 -0.090105
v -0.020477 0.102809 -0.092080
v -0.020477 0.082754 -0.090105
v -0.020477 0.063470 -0.084255
v -0.020477 0.045698 -0.074756
v -0.020477 0.030120 -0.061971
v -0.020477 0.017336 -0.046394
v -0.020477 0.007837 -0.028622
v -0.020477 0.001987 -0.009338
v -0.020477 0.000012 0.010717
v -0.020477 0.001987 0.030772
v -0.020477 0.007837 0.050056
v -0.020477 0.017336 0.067828
v -0.020477 0.030121 0.083406
v -0.020477 0.045698 0.096190
v -0.020477 0.063470 0.105689
v -0.020477 0.082754 0.111539
v -0.020477 0.102809 0.113514
v -0.020477 0.122864 0.111539
v -0.020477 0.142148 0.105689
v -0.020477 0.159920 0.096190
v -0.020477 0.175498 0.083406
v -0.020477 0.188282 0.067828
v -0.020477 0.197781 0.050056
v -0.020477 0.203631 0.030772
v -0.037275 0.092989 0.033007
v -0.037275 0.095364 -0.010961
v -0.037276 0.236377 0.059755
v -0.037275 0.236377 -0.053415
v -0.049355 0.236377 0.059755
v -0.049355 0.092989 0.033007
v -0.049355 0.095364 -0.010961
v -0.049355 0.236377 -0.053415
v -0.037275 0.225475 0.057721
v -0.037275 0.225656 -0.050187
v -0.049355 0.225475 0.057721
v -0.049355 0.225656 -0.050187
v -0.080573 0.271621 -0.063419
v -0.080573 0.271621 0.091939
v -0.080574 0.524092 -0.063419
v -0.080574 0.524092 0.075650
v -0.080573 0.485131 -0.063419
v -0.080573 0.485131 0.091939
v -0.080573 0.437330 0.091939
v -0.080573 0.437330 -0.063419
v -0.037275 0.094691 0.001490
v -0.049355 0.094691 0.001490
v -0.049355 0.236377 -0.021369
v -0.049355 0.225605 -0.019631
v -0.037275 0.225605 -0.019631
v -0.080573 0.271621 -0.019426
v -0.080574 0.524092 -0.019426
v -0.080573 0.485131 -0.019426
v -0.080573 0.437330 -0.019426
v -0.049355 0.236377 0.024263
v -0.037275 0.225532 0.023880
v -0.080573 0.271621 0.043216
v -0.080574 0.524092 0.043216
v -0.037275 0.093734 0.019218
v -0.049355 0.093734 0.019218
v -0.049355 0.225532 0.023880
v -0.080573 0.485131 0.043216
v -0.080573 0.437330 0.043216
v -0.151345 0.437330 0.043216
v -0.151345 0.437330 -0.019426
v -0.104253 0.485130 0.043216
v -0.104253 0.437330 0.043216
v -0.104253 0.437330 -0.019426
v -0.104253 0.485130 -0.019426
v -0.151345 0.334996 0.043216
v -0.151345 0.334996 -0.019426
v -0.104253 0.334997 -0.019426
v -0.104253 0.334997 0.043216
v -0.151345 0.372500 0.043216
v -0.104253 0.372500 0.043216
v -0.151345 0.372500 -0.019426
v -0.104253 0.372500 -0.019426
v -0.151345 0.334996 0.124568
v -0.104253 0.334997 0.124568
v -0.151345 0.372500 0.124568
v -0.104253 0.372500 0.124568
v -0.020952 0.236377 -0.053415
v -0.020952 0.236377 0.059755
v -0.034205 0.271621 -0.063419
v -0.034205 0.271621 0.091939
v -0.034205 0.524092 -0.063419
v -0.034205 0.524092 0.075650
v -0.034205 0.485131 0.091939
v -0.034205 0.485131 -0.063419
v -0.034205 0.437330 -0.063419
v -0.034205 0.437330 0.091939
v -0.034205 0.524092 -0.019426
v -0.034205 0.524092 0.043216
v -0.059665 0.554182 -0.051436
v -0.059665 0.554182 0.078932
v -0.059666 0.613387 -0.051436
v -0.052653 0.648592 -0.016232
v -0.059132 0.626859 -0.048757
v -0.057612 0.638280 -0.041125
v -0.055337 0.645912 -0.029704
v -0.052653 0.648592 0.043727
v -0.059666 0.613387 0.078932
v -0.055337 0.645912 0.057199
v -0.057612 0.638280 0.068621
v -0.059132 0.626859 0.076252
v -0.144541 0.485130 0.043216
v -0.151345 0.450975 0.043216
v -0.147145 0.482531 0.043216
v -0.149352 0.475127 0.043216
v -0.150827 0.464046 0.043216
v -0.151345 0.450975 -0.019426
v -0.144541 0.485130 -0.019426
v -0.150827 0.464046 -0.019426
v -0.149352 0.475127 -0.019426
v -0.147145 0.482531 -0.019426
v 0.020477 0.205606 0.010717
v 0.000000 0.205606 0.010717
v 0.020477 0.203631 -0.009338
v 0.000000 0.203631 -0.009338
v 0.020477 0.197781 -0.028622
v 0.000000 0.197781 -0.028622
v 0.020477 0.188282 -0.046394
v 0.000000 0.188282 -0.046394
v 0.020477 0.175498 -0.061971
v 0.000000 0.175498 -0.061971
v 0.020477 0.159920 -0.074756
v 0.000000 0.159920 -0.074756
v 0.020477 0.142148 -0.084255
v 0.000000 0.142148 -0.084255
v 0.020477 0.122864 -0.090105
v 0.000000 0.122864 -0.090105
v 0.020477 0.102809 -0.092080
v 0.000000 0.102809 -0.092080
v 0.020477 0.082754 -0.090105
v 0.000000 0.082754 -0.090105
v 0.020477 0.063470 -0.084255
v 0.000000 0.063470 -0.084255
v 0.020477 0.045698 -0.074756
v 0.000000 0.045698 -0.074756
v 0.020477 0.030120 -0.061971
v 0.000000 0.030120 -0.061971
v 0.020477 0.017336 -0.046394
v 0.000000 0.017336 -0.046394
v 0.020477 0.007837 -0.028622
v 0.000000 0.007837 -0.028622
v 0.020477 0.001987 -0.009338
v 0.000000 0.001987 -0.009338
v 0.020477 0.000012 0.010717
v 0.000000 0.000012 0.010717
v 0.020477 0.001987 0.030772
v 0.000000 0.001987 0.030772
v 0.020477 0.007837 0.050056
v 0.000000 0.007837 0.050056
v 0.020477 0.017336 0.067828
v 0.000000 0.017336 0.067828
v 0.020477 0.030121 0.083406
v 0.000000 0.030121 0.083406
v 0.020477 0.045698 0.096190
v 0.000000 0.045698 0.096190
v 0.020477 0.063470 0.105689
v 0.000000 0.063470 0.105689
v 0.020477 0.082754 0.111539
v 0.000000 0.082754 0.111539
v 0.020477 0.102809 0.113514
v 0.000000 0.102809 0.113514
v 0.020477 0.122864 0.111539
v 0.000000 0.122864 0.111539
v 0.020477 0.142148 0.105689
v 0.000000 0.142148 0.105689
v 0.020477 0.159920 0.096190
v 0.000000 0.159920 0.096190
v 0.020477 0.175498 0.083406
v 0.000000 0.175498 0.083406
v 0.020477 0.188282 0.067828
v 0.000000 0.188282 0.067828
v 0.020477 0.197781 0.050056
v 0.000000 0.197781 0.050056
v 0.020477 0.203631 0.030772
v 0.000000 0.203631 0.030772
v 0.037275 0.092989 0.033007
v 0.037275 0.095364 -0.010961
v 0.037276 0.236377 0.059755
v 0.037275 0.236377 -0.053415
v 0.049355 0.236377 0.059755
v 0.049355 0.092989 0.033007
v 0.049355 0.095364 -0.010961
v 0.049355 0.236377 -0.053415
v 0.037275 0.225475 0.057721
v 0.037275 0.225656 -0.050187
v 0.049355 0.225475 0.057721
v 0.049355 0.225656 -0.050187
v 0.000000 0.225656 -0.050187
v 0.000000 0.236377 -0.053415
v 0.000000 0.236377 0.059755
v 0.000000 0.225475 0.057721
v 0.080573 0.271621 -0.063419
v 0.000000 0.271621 -0.063419
v 0.080573 0.271621 0.091939
v 0.000000 0.271621 0.091939
v 0.080574 0.524092 -0.063419
v 0.000000 0.524092 -0.063419
v 0.080574 0.524092 0.075650
v 0.000000 0.524092 0.075650
v 0.080573 0.485131 -0.063419
v 0.000000 0.485131 -0.063419
v 0.000000 0.485131 0.091939
v 0.080573 0.485131 0.091939
v 0.000000 0.437330 -0.063419
v 0.080573 0.437330 0.091939
v 0.080573 0.437330 -0.063419
v 0.000000 0.437330 0.091939
v 0.037275 0.094691 0.001490
v 0.049355 0.094691 0.001490
v 0.049355 0.236377 -0.021369
v 0.049355 0.225605 -0.019631
v 0.037275 0.225605 -0.019631
v 0.000000 0.225605 -0.019631
v 0.080573 0.271621 -0.019426
v 0.080574 0.524092 -0.019426
v 0.000000 0.524092 -0.019426
v 0.080573 0.485131 -0.019426
v 0.080573 0.437330 -0.019426
v 0.049355 0.236377 0.024263
v 0.037275 0.225532 0.023880
v 0.000000 0.225532 0.023880
v 0.080573 0.271621 0.043216
v 0.080574 0.524092 0.043216
v 0.000000 0.524092 0.043216
v 0.037275 0.093734 0.019218
v 0.049355 0.093734 0.019218
v 0.049355 0.225532 0.023880
v 0.080573 0.485131 0.043216
v 0.080573 0.437330 0.043216
v 0.151345 0.437330 0.043216
v 0.151345 0.437330 -0.019426
v 0.104253 0.485130 0.043216
v 0.104253 0.437330 0.043216
v 0.104253 0.437330 -0.019426
v 0.104253 0.485130 -0.019426
v 0.151345 0.334996 0.043216
v 0.151345 0.334996 -0.019426
v 0.104253 0.334997 -0.019426
v 0.104253 0.334997 0.043216
v 0.151345 0.372500 0.043216
v 0.104253 0.372500 0.043216
v 0.151345 0.372500 -0.019426
v 0.104253 0.372500 -0.019426
v 0.151345 0.334996 0.124568
v 0.104253 0.334997 0.124568
v 0.151345 0.372500 0.124568
v 0.104253 0.372500 0.124568
v 0.020952 0.236377 -0.053415
v 0.020952 0.236377 0.059755
v 0.034205 0.271621 -0.063419
v 0.034205 0.271621 0.091939
v 0.034205 0.524092 -0.063419
v 0.034205 0.524092 0.075650
v 0.034205 0.485131 0.091939
v 0.034205 0.485131 -0.063419
v 0.034205 0.437330 -0.063419
v 0.034205 0.437330 0.091939
v 0.034205 0.524092 -0.019426
v 0.034205 0.524092 0.043216
v 0.059665 0.554182 -0.051436
v 0.000000 0.554183 -0.051436
v 0.000000 0.554183 0.078932
v 0.059665 0.554182 0.078932
v 0.059666 0.613387 -0.051436
v 0.052653 0.648592 -0.016232
v 0.059132 0.626859 -0.048757
v 0.057612 0.638280 -0.041125
v 0.055337 0.645912 -0.029704
v 0.000000 0.613387 -0.051436
v 0.000000 0.648592 -0.016232
v 0.000000 0.626859 -0.048757
v 0.000000 0.638280 -0.041125
v 0.000000 0.645912 -0.029704
v 0.000000 0.648592 0.043727
v 0.000000 0.613387 0.078932
v 0.000000 0.645912 0.057199
v 0.000000 0.638280 0.068621
v 0.000000 0.626859 0.076252
v 0.052653 0.648592 0.043727
v 0.059666 0.613387 0.078932
v 0.055337 0.645912 0.057199
v 0.057612 0.638280 0.068621
v 0.059132 0.626859 0.076252
v 0.144541 0.485130 0.043216
v 0.151345 0.450975 0.043216
v 0.147145 0.482531 0.043216
v 0.149352 0.475127 0.043216
v 0.150827 0.464046 0.043216
v 0.151345 0.450975 -0.019426
v 0.144541 0.485130 -0.019426
v 0.150827 0.464046 -0.019426
v 0.149352 0.475127 -0.019426
v 0.147145 0.482531 -0.019426
vn 0.0000 0.9952 -0.0980
vn 0.0000 0.9569 -0.2903
vn 0.0000 0.8819 -0.4714
vn 0.0000 0.7730 -0.6344
vn 0.0000 0.6344 -0.7730
vn -0.0000 0.4714 -0.8819
vn 0.0000 0.2903 -0.9569
vn 0.0000 0.0980 -0.9952
vn 0.0000 -0.0980 -0.9952
vn 0.0000 -0.2903 -0.9569
vn 0.0000 -0.4714 -0.8819
vn 0.0000 -0.6344 -0.7730
vn 0.0000 -0.7730 -0.6344
vn 0.0000 -0.8819 -0.4714
vn 0.0000 -0.9569 -0.2903
vn 0.0000 -0.9952 -0.0980
vn -0.0000 -0.9952 0.0980
vn -0.0000 -0.9569 0.2903
vn 0.0000 -0.8819 0.4714
vn 0.0000 -0.7730 0.6344
vn 0.0000 -0.6344 0.7730
vn 0.0000 -0.4714 0.8819
vn 0.0000 -0.2903 0.9569
vn 0.0000 -0.0980 0.9952
vn 0.0000 0.0980 0.9952
vn -0.0000 0.2903 0.9569
vn -0.0000 0.4714 0.8819
vn 0.0000 0.6344 0.7730
vn 0.0000 0.7730 0.6344
vn 0.0000 0.8819 0.4714
vn 0.0000 0.9569 0.2903
vn -0.0000 0.9952 0.0980
vn -1.0000 -0.0000 -0.0000
vn -0.7486 -0.6631 -0.0000
vn 0.0000 0.0000 -1.0000
vn 0.0000 -0.9985 -0.0539
vn 0.0000 -0.2883 -0.9575
vn 0.0000 -0.1834 0.9830
vn 1.0000 0.0000 0.0000
vn 0.0000 -1.0000 -0.0017
vn 0.0000 -0.2731 -0.9620
vn 0.0000 -0.6743 0.7384
vn -0.0000 1.0000 0.0000
vn -0.0000 0.3857 0.9226
vn -0.0000 -0.0000 1.0000
vn 0.0000 -1.0000 0.0000
vn 0.0000 -0.7648 0.6443
vn 0.0000 -0.7286 -0.6849
vn -0.7634 -0.6459 -0.0000
vn -0.0000 0.9808 -0.1951
vn -0.0000 0.8315 -0.5556
vn -0.0000 0.5556 -0.8315
vn -0.0000 0.1951 -0.9808
vn -0.0000 0.1951 0.9808
vn -0.0000 0.5556 0.8315
vn -0.0000 0.8315 0.5556
vn -0.0000 0.9808 0.1951
vn -0.9992 0.0396 -0.0000
vn -0.9913 0.1319 -0.0000
vn -0.9583 0.2857 -0.0000
vn -0.7066 0.7076 -0.0000
vn 0.7486 -0.6631 0.0000
vn 0.7634 -0.6459 0.0000
vn 0.9992 0.0396 -0.0000
vn 0.9913 0.1319 -0.0000
vn 0.9583 0.2857 0.0000
vn 0.7066 0.7076 -0.0000
usemtl None
s off
f 1//1 124//1 126//1 2//1
f 2//2 126//2 128//2 3//2
f 3//3 128//3 130//3 4//3
f 4//4 130//4 132//4 5//4
f 5//5 132//5 134//5 6//5
f 6//6 134//6 136//6 7//6
f 7//7 136//7 138//7 8//7
f 8//8 138//8 140//8 9//8
f 9//9 140//9 142//9 10//9
f 10//10 142//10 144//10 11//10
f 11//11 144//11 146//11 12//11
f 12//12 146//12 148//12 13//12
f 13//13 148//13 150//13 14//13
f 14//14 150//14 152//14 15//14
f 15//15 152//15 154//15 16//15
f 16//16 154//16 156//16 17//16
f 17//17 156//17 158//17 18//17
f 18//18 158//18 160//18 19//18
f 19//19 160//19 162//19 20//19
f 20//20 162//20 164//20 21//20
f 21//21 164//21 166//21 22//21
f 22//22 166//22 168//22 23//22
f 23//23 168//23 170//23 24//23
f 24//24 170//24 172//24 25//24
f 25//25 172//25 174//25 26//25
f 26//26 174//26 176//26 27//26
f 27//27 176//27 178//27 28//27
f 28//28 178//28 180//28 29//28
f 29//29 180//29 182//29 30//29
f 30//30 182//30 184//30 31//30
f 31//31 184//31 186//31 32//31
f 32//32 186//32 124//32 1//32
f 1//33 2//33 3//33 4//33 5//33 6//33 7//33 8//33 9//33 10//33 11//33 12//33 13//33 14//33 15//33 16//33 17//33 18//33 19//33 20//33 21//33 22//33 23//33 24//33 25//33 26//33 27//33 28//33 29//33 30//33 31//33 32//33
f 62//34 37//34 46//34 64//34
f 56//33 55//33 40//33 44//33
f 96//35 49//35 47//35 93//35
f 53//36 54//36 39//36 34//36
f 42//37 44//37 40//37 36//37
f 41//38 43//38 38//38 33//38
f 35//38 37//38 43//38 41//38
f 34//37 39//37 44//37 42//37
f 54//33 56//33 44//33 39//33
f 53//39 34//39 42//39 57//39
f 35//38 41//38 202//38 201//38
f 57//40 42//40 199//40 224//40
f 42//37 36//37 200//37 199//37
f 89//41 40//41 45//41 91//41
f 90//42 201//42 206//42 92//42
f 100//43 65//43 48//43 94//43
f 95//44 213//44 210//44 94//44
f 69//33 50//33 48//33 65//33
f 70//33 51//33 50//33 69//33
f 98//45 218//45 213//45 95//45
f 97//35 52//35 49//35 96//35
f 91//35 45//35 52//35 97//35
f 92//45 206//45 218//45 98//45
f 64//33 46//33 51//33 70//33
f 45//33 58//33 61//33 52//33
f 52//33 61//33 60//33 49//33
f 49//33 60//33 59//33 47//33
f 93//43 47//43 59//43 99//43
f 63//40 57//40 224//40 232//40
f 66//39 53//39 57//39 63//39
f 67//33 68//33 56//33 54//33
f 66//36 67//36 54//36 53//36
f 68//33 62//33 55//33 56//33
f 40//34 55//34 58//34 45//34
f 43//33 37//33 62//33 68//33
f 33//36 38//36 67//36 66//36
f 38//33 43//33 68//33 67//33
f 33//39 66//39 63//39 41//39
f 41//40 63//40 232//40 202//40
f 58//33 64//33 70//33 61//33
f 73//43 76//43 119//43 113//43
f 60//33 69//33 65//33 59//33
f 99//43 59//43 65//43 100//43
f 55//34 62//34 64//34 58//34
f 74//45 73//45 113//45 115//45 116//45 117//45 114//45 71//45
f 81//33 77//33 85//33 87//33
f 76//35 75//35 72//35 118//35 120//35 121//35 122//35 119//35
f 69//43 60//43 76//43 73//43
f 61//46 70//46 74//46 75//46
f 60//35 61//35 75//35 76//35
f 70//45 69//45 73//45 74//45
f 79//46 80//46 77//46 78//46
f 81//33 83//33 78//33 77//33
f 83//35 84//35 79//35 78//35
f 84//39 82//39 80//39 79//39
f 75//39 74//39 82//39 84//39
f 72//35 75//35 84//35 83//35
f 71//33 72//33 83//33 81//33
f 74//45 71//45 81//45 82//45
f 88//45 87//45 85//45 86//45
f 82//43 81//43 87//43 88//43
f 77//46 80//46 86//46 85//46
f 80//39 82//39 88//39 86//39
f 100//47 235//47 273//47 102//47
f 208//43 93//43 99//43 227//43
f 46//45 92//45 98//45 51//45
f 204//35 91//35 97//35 215//35
f 215//35 97//35 96//35 212//35
f 51//45 98//45 95//45 50//45
f 50//44 95//44 94//44 48//44
f 235//43 100//43 94//43 210//43
f 37//42 90//42 92//42 46//42
f 200//41 89//41 91//41 204//41
f 212//35 96//35 93//35 208//35
f 227//48 99//48 101//48 272//48
f 99//49 100//49 102//49 101//49
f 101//33 102//33 109//33 103//33
f 281//43 104//43 108//43 285//43
f 102//45 273//45 286//45 109//45
f 104//50 281//50 284//50 107//50
f 107//51 284//51 283//51 106//51
f 106//52 283//52 282//52 105//52
f 105//53 282//53 280//53 103//53
f 109//54 286//54 289//54 112//54
f 112//55 289//55 288//55 111//55
f 111//56 288//56 287//56 110//56
f 110//57 287//57 285//57 108//57
f 103//58 109//58 112//58 105//58
f 105//59 112//59 111//59 106//59
f 106//60 111//60 110//60 107//60
f 107//61 110//61 108//61 104//61
f 272//35 101//35 103//35 280//35
f 113//61 119//61 122//61 115//61
f 115//60 122//60 121//60 116//60
f 116//59 121//59 120//59 117//59
f 117//58 120//58 118//58 114//58
f 72//33 71//33 114//33 118//33
f 123//1 125//1 126//1 124//1
f 125//2 127//2 128//2 126//2
f 127//3 129//3 130//3 128//3
f 129//4 131//4 132//4 130//4
f 131//5 133//5 134//5 132//5
f 133//6 135//6 136//6 134//6
f 135//7 137//7 138//7 136//7
f 137//8 139//8 140//8 138//8
f 139//9 141//9 142//9 140//9
f 141//10 143//10 144//10 142//10
f 143//11 145//11 146//11 144//11
f 145//12 147//12 148//12 146//12
f 147//13 149//13 150//13 148//13
f 149//14 151//14 152//14 150//14
f 151//15 153//15 154//15 152//15
f 153//16 155//16 156//16 154//16
f 155//17 157//17 158//17 156//17
f 157//18 159//18 160//18 158//18
f 159//19 161//19 162//19 160//19
f 161//20 163//20 164//20 162//20
f 163//21 165//21 166//21 164//21
f 165//22 167//22 168//22 166//22
f 167//23 169//23 170//23 168//23
f 169//24 171//24 172//24 170//24
f 171//25 173//25 174//25 172//25
f 173//26 175//26 176//26 174//26
f 175//27 177//27 178//27 176//27
f 177//28 179//28 180//28 178//28
f 179//29 181//29 182//29 180//29
f 181//30 183//30 184//30 182//30
f 183//31 185//31 186//31 184//31
f 185//32 123//32 124//32 186//32
f 123//39 185//39 183//39 181//39 179//39 177//39 175//39 173//39 171//39 169//39 167//39 165//39 163//39 161//39 159//39 157//39 155//39 153//39 151//39 149//39 147//39 145//39 143//39 141//39 139//39 137//39 135//39 133//39 131//39 129//39 127//39 125//39
f 230//62 233//62 205//62 191//62
f 222//39 198//39 194//39 221//39
f 266//35 263//35 207//35 211//35
f 219//36 188//36 193//36 220//36
f 196//37 190//37 194//37 198//37
f 195//38 187//38 192//38 197//38
f 189//38 195//38 197//38 191//38
f 188//37 196//37 198//37 193//37
f 220//39 193//39 198//39 222//39
f 219//33 223//33 196//33 188//33
f 189//38 201//38 202//38 195//38
f 223//40 224//40 199//40 196//40
f 196//37 199//37 200//37 190//37
f 259//41 261//41 203//41 194//41
f 260//42 262//42 206//42 201//42
f 270//43 264//43 209//43 234//43
f 265//44 264//44 210//44 213//44
f 239//39 234//39 209//39 214//39
f 240//39 239//39 214//39 216//39
f 268//45 265//45 213//45 218//45
f 267//35 266//35 211//35 217//35
f 261//35 267//35 217//35 203//35
f 262//45 268//45 218//45 206//45
f 233//39 240//39 216//39 205//39
f 203//39 217//39 229//39 225//39
f 217//39 211//39 228//39 229//39
f 211//39 207//39 226//39 228//39
f 263//43 269//43 226//43 207//43
f 231//40 232//40 224//40 223//40
f 236//33 231//33 223//33 219//33
f 237//39 220//39 222//39 238//39
f 236//36 219//36 220//36 237//36
f 238//39 222//39 221//39 230//39
f 194//62 203//62 225//62 221//62
f 197//39 238//39 230//39 191//39
f 187//36 236//36 237//36 192//36
f 192//39 237//39 238//39 197//39
f 187//33 195//33 231//33 236//33
f 195//40 202//40 232//40 231//40
f 225//39 229//39 240//39 233//39
f 243//43 295//43 301//43 246//43
f 228//39 226//39 234//39 239//39
f 269//43 270//43 234//43 226//43
f 221//62 225//62 233//62 230//62
f 244//45 241//45 296//45 299//45 298//45 297//45 295//45 243//45
f 251//39 257//39 255//39 247//39
f 246//35 301//35 304//35 303//35 302//35 300//35 242//35 245//35
f 239//43 243//43 246//43 228//43
f 229//46 245//46 244//46 240//46
f 228//35 246//35 245//35 229//35
f 240//45 244//45 243//45 239//45
f 249//46 248//46 247//46 250//46
f 251//39 247//39 248//39 253//39
f 253//35 248//35 249//35 254//35
f 254//33 249//33 250//33 252//33
f 245//33 254//33 252//33 244//33
f 242//35 253//35 254//35 245//35
f 241//39 251//39 253//39 242//39
f 244//45 252//45 251//45 241//45
f 258//45 256//45 255//45 257//45
f 252//43 258//43 257//43 251//43
f 247//46 255//46 256//46 250//46
f 250//33 256//33 258//33 252//33
f 270//47 274//47 273//47 235//47
f 208//43 227//43 269//43 263//43
f 205//45 216//45 268//45 262//45
f 204//35 215//35 267//35 261//35
f 215//35 212//35 266//35 267//35
f 216//45 214//45 265//45 268//45
f 214//44 209//44 264//44 265//44
f 235//43 210//43 264//43 270//43
f 191//42 205//42 262//42 260//42
f 200//41 204//41 261//41 259//41
f 212//35 208//35 263//35 266//35
f 227//48 272//48 271//48 269//48
f 269//63 271//63 274//63 270//63
f 271//39 275//39 291//39 274//39
f 281//43 285//43 290//43 276//43
f 274//45 291//45 286//45 273//45
f 276//50 279//50 284//50 281//50
f 279//51 278//51 283//51 284//51
f 278//52 277//52 282//52 283//52
f 277//53 275//53 280//53 282//53
f 291//54 294//54 289//54 286//54
f 294//55 293//55 288//55 289//55
f 293//56 292//56 287//56 288//56
f 292//57 290//57 285//57 287//57
f 275//64 277//64 294//64 291//64
f 277//65 278//65 293//65 294//65
f 278//66 279//66 292//66 293//66
f 279//67 276//67 290//67 292//67
f 272//35 280//35 275//35 271//35
f 295//67 297//67 304//67 301//67
f 297//66 298//66 303//66 304//66
f 298//65 299//65 302//65 303//65
f 299//64 296//64 300//64 302//64
f 242//39 300//39 296//39 241//39
