# Blender v2.77 (sub 0) OBJ File: 'BotAndTile.blend'
# www.blender.org
mtllib BotBody.mtl
o Body_Cube.001
v 0.051315 0.162368 0.061749
v 0.079314 0.345986 0.077010
v -0.054683 0.162368 0.061749
v -0.082683 0.345986 0.077010
v 0.051315 0.162368 -0.062947
v 0.079314 0.345986 -0.078208
v -0.054683 0.162368 -0.062947
v -0.082683 0.345986 -0.078208
v 0.058204 0.298644 0.073075
v -0.061573 0.298644 0.073075
v -0.076805 0.307442 -0.075005
v 0.073437 0.307442 -0.075005
v -0.047439 0.205958 0.065372
v -0.059988 0.197159 -0.065839
v 0.056620 0.197159 -0.065839
v 0.044071 0.205958 0.065372
v 0.056620 0.197159 0.064641
v 0.073437 0.307442 0.073807
v -0.076805 0.307442 0.073807
v -0.059988 0.197159 0.064641
v 0.044071 0.206864 0.054467
v 0.058204 0.299550 0.062171
v -0.061573 0.299550 0.062171
v -0.047439 0.206864 0.054467
v -0.044181 0.335684 -0.091941
v 0.040812 0.335684 -0.091941
v -0.041097 0.315462 -0.088738
v 0.037729 0.315462 -0.088738
v -0.031236 0.187379 -0.080295
v -0.028547 0.169745 -0.077403
v 0.027868 0.187379 -0.080295
v 0.025179 0.169745 -0.077403
v -0.101302 0.335413 0.068762
v -0.090833 0.344743 0.077010
v -0.090833 0.344743 -0.078208
v -0.101302 0.335413 -0.069960
v -0.097729 0.311986 0.066815
v -0.084955 0.306200 0.073807
v -0.084955 0.306200 -0.075005
v -0.097729 0.311986 -0.068013
v 0.081587 0.306200 0.073807
v 0.094361 0.311986 0.066815
v 0.097933 0.335413 0.068762
v 0.087464 0.344743 0.077010
v 0.097933 0.335413 -0.069960
v 0.087464 0.344743 -0.078208
v 0.094361 0.311986 -0.068013
v 0.081587 0.306200 -0.075005
v -0.082683 0.345986 -0.051694
v -0.054683 0.162368 -0.041647
v 0.079314 0.345986 -0.051694
v 0.051315 0.162368 -0.041647
v 0.073437 0.307442 -0.049585
v -0.076805 0.307442 -0.049585
v 0.056620 0.197159 -0.043551
v -0.059988 0.197159 -0.043551
v -0.090833 0.344743 -0.051694
v -0.101302 0.335413 -0.046264
v -0.084955 0.306200 -0.049585
v -0.097729 0.311986 -0.044982
v 0.087464 0.344743 -0.051694
v 0.097933 0.335413 -0.046264
v 0.081587 0.306200 -0.049585
v 0.094361 0.311986 -0.044982
v -0.095805 0.345206 -0.058538
v -0.095805 0.345206 -0.066605
v -0.100070 0.345080 -0.065388
v -0.100070 0.345080 -0.058178
v -0.098441 0.553192 -0.058538
v -0.098441 0.553192 -0.066605
v -0.102705 0.553067 -0.065388
v -0.102705 0.553067 -0.058178
vt 0.5458 0.0796
vt 0.3889 0.0796
vt 0.3960 0.0024
vt 0.5387 0.0024
vt 0.2355 0.6097
vt 0.2355 0.5605
vt 0.3091 0.5668
vt 0.3091 0.6139
vt 0.5728 0.9125
vt 0.4992 0.9052
vt 0.5180 0.8699
vt 0.5557 0.8738
vt 0.5668 0.6739
vt 0.5668 0.4347
vt 0.6405 0.4411
vt 0.6405 0.6696
vt 0.6450 0.8907
vt 0.7877 0.8907
vt 0.7877 0.9374
vt 0.6450 0.9374
vt 0.8490 0.2869
vt 0.6309 0.2869
vt 0.6309 0.0024
vt 0.8490 0.0024
vt 0.9461 0.0221
vt 0.8646 0.0139
vt 0.8672 0.0024
vt 0.9487 0.0105
vt 0.6081 0.7482
vt 0.6081 0.9603
vt 0.5773 0.9099
vt 0.5773 0.7986
vt 0.8646 0.2422
vt 0.9461 0.2338
vt 0.9487 0.2453
vt 0.8672 0.2537
vt 0.5763 0.4097
vt 0.3583 0.4097
vt 0.3662 0.3242
vt 0.5684 0.3242
vt 0.3334 0.6872
vt 0.3334 0.4145
vt 0.8470 0.6590
vt 0.6450 0.6590
vt 0.6673 0.4145
vt 0.8240 0.4145
vt 0.0023 0.5964
vt 0.0023 0.5402
vt 0.9094 0.7623
vt 0.9094 0.9664
vt 0.8864 0.9664
vt 0.8864 0.7624
vt 0.5479 0.3047
vt 0.5289 0.0991
vt 0.3867 0.3047
vt 0.4057 0.0991
vt 0.4946 0.9538
vt 0.3334 0.9538
vt 0.3525 0.7482
vt 0.4756 0.7482
vt 0.6357 0.7482
vt 0.6357 0.9527
vt 0.6126 0.9526
vt 0.6126 0.7482
vt 0.8646 0.4033
vt 0.8646 0.2741
vt 0.8876 0.2741
vt 0.8876 0.4033
vt 0.9371 0.7623
vt 0.9371 0.9314
vt 0.9140 0.9314
vt 0.9140 0.7623
vt 0.8829 0.1862
vt 0.8829 0.0664
vt 0.9260 0.0709
vt 0.9260 0.1820
vt 0.6310 0.3455
vt 0.8490 0.3455
vt 0.7974 0.3757
vt 0.6830 0.3757
vt 0.5557 0.7905
vt 0.5180 0.7942
vt 0.7525 0.9711
vt 0.6802 0.9711
vt 0.4992 0.7558
vt 0.5728 0.7482
vt 0.8818 0.7623
vt 0.8818 0.9269
vt 0.8515 0.8866
vt 0.8515 0.8032
vt 0.3473 0.4069
vt 0.3552 0.3214
vt 0.6200 0.3455
vt 0.6200 0.2869
vt 0.5794 0.3214
vt 0.5873 0.4069
vt 0.8204 0.7195
vt 0.8204 0.9903
vt 0.8095 0.9907
vt 0.8095 0.7199
vt 0.9658 0.6856
vt 0.9658 0.7414
vt 0.9549 0.7410
vt 0.9549 0.6852
vt 0.9143 0.4850
vt 0.9143 0.7393
vt 0.8647 0.7350
vt 0.8647 0.4879
vt 0.8600 0.0024
vt 0.8600 0.2869
vt 0.6133 0.3199
vt 0.6133 0.3020
vt 0.3334 0.3850
vt 0.3382 0.3330
vt 0.9382 0.2642
vt 0.8886 0.2693
vt 0.7923 0.9738
vt 0.7923 0.7284
vt 0.5968 0.3330
vt 0.6016 0.3850
vt 0.9331 0.4731
vt 0.9331 0.7576
vt 0.9143 0.4327
vt 0.8647 0.4370
vt 0.8515 0.4215
vt 0.9331 0.4145
vt 0.9377 0.7272
vt 0.9377 0.6767
vt 0.2605 0.4806
vt 0.3103 0.4838
vt 0.3032 0.5354
vt 0.2547 0.5323
vt 0.0185 0.4650
vt 0.0195 0.5171
vt 0.9549 0.4145
vt 0.9377 0.4313
vt 0.8095 0.6641
vt 0.7923 0.6779
vt 0.0023 0.4440
vt 0.2731 0.4614
vt 0.8600 0.3455
vt 0.9658 0.4148
vt 0.8204 0.6638
vt 0.6200 0.0024
vt 0.0023 0.8691
vt 0.2355 0.8489
vt 0.3334 0.7434
vt 0.5668 0.7231
vt 0.6450 0.6638
vt 0.7877 0.6638
vt 0.6405 0.7167
vt 0.3091 0.8425
vt 0.9920 0.4145
vt 0.9977 0.4146
vt 0.9977 0.8731
vt 0.9920 0.8730
vt 0.2868 0.4610
vt 0.3020 0.4619
vt 0.6061 0.2747
vt 0.6076 0.3012
vt 0.3289 0.4650
vt 0.3045 0.4621
vt 0.6119 0.3812
vt 0.6119 0.3991
vt 0.6061 0.3964
vt 0.6061 0.3804
vt 0.3137 0.5407
vt 0.3196 0.5402
vt 0.3196 0.9971
vt 0.3137 0.9976
vt 0.3137 0.0024
vt 0.3289 0.0034
vt 0.9704 0.4145
vt 0.9874 0.4145
vt 0.9874 0.8732
vt 0.9704 0.8732
vn -0.0000 -0.0828 0.9966
vn -0.9886 -0.1507 0.0000
vn 0.4652 -0.1668 -0.8693
vn 0.9886 -0.1507 0.0000
vn 0.0000 -1.0000 0.0000
vn 0.0000 1.0000 0.0000
vn -0.0123 -0.0810 -0.9966
vn 0.0000 -0.8636 -0.5043
vn 0.0123 -0.0810 -0.9966
vn 0.0000 -0.0828 -0.9966
vn 0.9886 0.1497 0.0124
vn -0.9886 0.1497 0.0124
vn -0.0000 0.9966 0.0828
vn -0.0000 -0.9966 -0.0828
vn 0.0000 -0.1565 -0.9877
vn 0.3471 -0.1538 -0.9251
vn 0.0000 0.7999 -0.6001
vn -0.3471 -0.1538 -0.9251
vn 0.0000 -0.1618 -0.9868
vn 0.0000 -0.8907 -0.4545
vn -0.4652 -0.1668 -0.8693
vn 0.0000 0.8283 -0.5603
vn 0.0123 -0.0810 0.9966
vn -0.1507 0.9886 0.0000
vn -0.0123 -0.0810 0.9966
vn 0.1508 -0.9886 0.0000
vn -0.1508 -0.9886 0.0000
vn 0.1507 0.9886 -0.0000
vn 0.0927 0.9957 0.0000
vn -0.5261 -0.1498 0.8371
vn -0.5261 -0.1498 -0.8371
vn -0.4126 -0.9109 -0.0000
vn 0.5261 -0.1498 0.8371
vn 0.6654 0.7465 0.0000
vn 0.5261 -0.1498 -0.8371
vn 0.4126 -0.9109 -0.0000
vn -0.6654 0.7465 -0.0000
vn 0.0841 0.0011 0.9965
vn -0.9920 0.1264 -0.0000
vn -0.3207 0.8052 0.4988
vn -0.6719 0.5478 -0.4985
vn -0.0294 0.9996 0.0000
vn -0.2744 -0.0035 -0.9616
vn -0.9999 -0.0127 0.0000
vn 0.9999 0.0127 0.0000
usemtl Material
s off
f 17/1/1 20/2/1 3/3/1 1/4/1
f 56/5/2 14/6/2 7/7/2 50/8/2
f 15/9/3 5/10/3 32/11/3 31/12/3
f 55/13/4 17/14/4 1/15/4 52/16/4
f 52/17/5 50/18/5 7/19/5 5/20/5
f 51/21/6 49/22/6 4/23/6 2/24/6
f 12/25/7 6/26/7 46/27/7 48/28/7
f 12/29/8 11/30/8 27/31/8 28/32/8
f 8/33/9 11/34/9 39/35/9 35/36/9
f 2/37/1 4/38/1 19/39/1 18/40/1
f 53/41/4 18/42/4 17/14/4 55/13/4
f 11/43/10 12/44/10 15/45/10 14/46/10
f 54/47/2 11/48/2 14/6/2 56/5/2
f 10/49/11 13/50/11 24/51/11 23/52/11
f 9/53/1 16/54/1 17/1/1 18/40/1
f 10/55/1 9/53/1 18/40/1 19/39/1
f 13/56/1 10/55/1 19/39/1 20/2/1
f 16/54/1 13/56/1 20/2/1 17/1/1
f 22/57/1 23/58/1 24/59/1 21/60/1
f 16/61/12 9/62/12 22/63/12 21/64/12
f 13/65/13 16/66/13 21/67/13 24/68/13
f 9/69/14 10/70/14 23/71/14 22/72/14
f 25/73/15 26/74/15 28/75/15 27/76/15
f 6/26/16 12/25/16 28/75/16 26/74/16
f 8/77/17 6/78/17 26/79/17 25/80/17
f 11/34/18 8/33/18 25/73/18 27/76/18
f 29/81/19 31/12/19 32/11/19 30/82/19
f 5/20/20 7/19/20 30/83/20 32/84/20
f 7/85/21 14/86/21 29/81/21 30/82/21
f 14/87/22 15/88/22 31/89/22 29/90/22
f 19/39/23 4/38/23 34/91/23 38/92/23
f 49/22/24 8/77/24 35/93/24 57/94/24
f 2/37/25 18/40/25 41/95/25 44/96/25
f 54/97/26 19/98/26 38/99/26 59/100/26
f 53/101/27 12/102/27 48/103/27 63/104/27
f 62/105/4 43/106/4 42/107/4 64/108/4
f 51/21/28 2/24/28 44/109/28 61/110/28
f 57/94/29 35/93/29 66/111/29 65/112/29
f 33/113/30 37/114/30 38/92/30 34/91/30
f 35/36/31 39/35/31 40/115/31 36/116/31
f 59/100/32 38/99/32 37/117/32 60/118/32
f 42/119/33 43/120/33 44/96/33 41/95/33
f 61/121/34 44/122/34 43/106/34 62/105/34
f 45/123/35 47/124/35 48/125/35 46/126/35
f 63/104/36 48/103/36 47/127/36 64/128/36
f 58/129/2 36/130/2 40/131/2 60/132/2
f 33/133/2 58/129/2 60/132/2 37/134/2
f 41/135/36 63/104/36 64/128/36 42/136/36
f 46/126/34 61/121/34 62/105/34 45/123/34
f 39/137/32 59/100/32 60/118/32 40/138/32
f 34/139/37 57/140/37 58/129/37 33/133/37
f 6/78/28 51/21/28 61/110/28 46/141/28
f 45/123/4 62/105/4 64/108/4 47/124/4
f 18/142/27 53/101/27 63/104/27 41/135/27
f 11/143/26 54/97/26 59/100/26 39/137/26
f 4/23/24 49/22/24 57/94/24 34/144/24
f 19/145/2 54/47/2 56/5/2 20/146/2
f 12/147/4 53/41/4 55/13/4 15/148/4
f 6/78/6 8/77/6 49/22/6 51/21/6
f 1/149/5 3/150/5 50/18/5 52/17/5
f 15/148/4 55/13/4 52/16/4 5/151/4
f 20/146/2 56/5/2 50/8/2 3/152/2
f 68/153/38 65/154/38 69/155/38 72/156/38
f 36/130/39 58/129/39 68/157/39 67/158/39
f 58/159/40 57/94/40 65/112/40 68/160/40
f 35/161/41 36/130/41 67/158/41 66/162/41
f 69/163/42 70/164/42 71/165/42 72/166/42
f 66/167/43 67/168/43 71/169/43 70/170/43
f 67/158/44 68/157/44 72/171/44 71/172/44
f 65/173/45 66/174/45 70/175/45 69/176/45
