# Blender v2.77 (sub 0) OBJ File: ''
# www.blender.org
mtllib untitled.mtl
o Cube
v 0.500000 -0.125000 -0.500000
v 0.500000 -0.125000 0.500000
v -0.500000 -0.125000 0.500000
v -0.500000 -0.125000 -0.500000
v 0.476257 0.044993 -0.476257
v 0.500000 0.027869 -0.499999
v 0.476257 0.044993 0.476257
v 0.499999 0.027869 0.500000
v -0.476257 0.044993 0.476257
v -0.500000 0.027869 0.500000
v -0.476257 0.044993 -0.476257
v -0.500000 0.027869 -0.500000
vn 0.0000 -1.0000 0.0000
vn -0.0000 -0.0000 1.0000
vn 0.0000 1.0000 0.0000
vn -1.0000 -0.0000 -0.0000
vn 1.0000 0.0000 0.0000
vn 0.5850 0.8111 0.0000
vn 0.0000 0.8111 -0.5850
vn -0.0000 0.8111 0.5850
vn -0.5850 0.8111 -0.0000
vn 0.0000 0.0000 -1.0000
usemtl Material
s off
f 1//1 2//1 3//1 4//1
f 2//2 8//2 10//2 3//2
f 5//3 11//3 9//3 7//3
f 3//4 10//4 12//4 4//4
f 1//5 6//5 8//5 2//5
f 5//6 7//6 8//6 6//6
f 6//7 12//7 11//7 5//7
f 7//8 9//8 10//8 8//8
f 9//9 11//9 12//9 10//9
f 6//10 1//10 4//10 12//10
