# Blender v2.77 (sub 0) OBJ File: 'Ramps.blend'
# www.blender.org
mtllib Ramp1.mtl
o Cube.002
v -0.496542 -0.170138 0.496542
v -0.496542 -0.170138 -0.496542
v 0.496542 -0.170138 0.496542
v 0.496542 -0.170138 -0.496542
v -0.479760 0.003475 0.479961
v -0.496542 -0.015999 0.496542
v -0.479760 0.152204 -0.479961
v -0.496542 0.137912 -0.496542
v 0.479760 0.003475 0.479961
v 0.496542 -0.015999 0.496542
v 0.479760 0.152204 -0.479961
v 0.496542 0.137912 -0.496542
vn 0.0000 0.9882 0.1531
vn 1.0000 0.0000 0.0000
vn -1.0000 0.0000 0.0000
vn 0.0000 -1.0000 0.0000
vn 0.0000 0.0000 -1.0000
vn -0.7050 0.7008 0.1086
vn 0.0000 0.7575 -0.6529
vn 0.7050 0.7008 0.1086
vn 0.0000 0.6483 0.7614
vn 0.0000 0.0000 1.0000
usemtl Material.001
s off
f 9//1 11//1 7//1 5//1
f 12//2 10//2 3//2 4//2
f 6//3 8//3 2//3 1//3
f 1//4 2//4 4//4 3//4
f 8//5 12//5 4//5 2//5
f 5//6 7//6 8//6 6//6
f 7//7 11//7 12//7 8//7
f 11//8 9//8 10//8 12//8
f 9//9 5//9 6//9 10//9
f 10//10 6//10 1//10 3//10
